<?xml version="1.0" standalone="no"?>
<!DOCTYPE svg PUBLIC "-//W3C//DTD SVG 20010904//EN"
 "http://www.w3.org/TR/2001/REC-SVG-20010904/DTD/svg10.dtd">
<svg version="1.0" xmlns="http://www.w3.org/2000/svg"
 width="1120.000000pt" height="1120.000000pt" viewBox="0 0 1120.000000 1120.000000"
 preserveAspectRatio="xMidYMid meet">

<g transform="translate(0.000000,1120.000000) scale(0.100000,-0.100000)"
fill="#000000" stroke="none">
<path d="M5611 9525 c-3 -111 -31 -576 -37 -615 -24 -180 -268 -370 -729 -569
-165 -72 -384 -184 -479 -245 -88 -57 -268 -195 -281 -215 -4 -8 211 -11 714
-11 l721 0 0 -42 0 -43 -768 3 -768 3 -80 -83 c-148 -155 -267 -332 -359 -538
-54 -120 -115 -293 -115 -327 l0 -23 453 0 c448 1 452 1 455 -20 3 -20 1 -20
-467 -20 l-470 0 -10 -52 c-6 -29 -15 -80 -22 -113 -14 -75 -23 -475 -12 -535
l9 -45 174 -3 c96 -2 235 0 308 3 l132 7 0 165 c0 192 2 198 87 257 l56 39 54
-28 c93 -48 97 -61 101 -268 l3 -179 130 3 129 3 0 161 c0 192 6 210 93 270
l58 39 43 -23 c24 -12 57 -36 72 -52 l29 -30 3 -183 3 -183 97 -2 c53 -1 98
-3 99 -5 2 -2 -2 -27 -8 -56 -29 -137 30 -294 136 -355 23 -14 45 -25 48 -25
4 0 7 84 7 186 0 218 3 227 90 273 l56 30 52 -29 c28 -17 55 -38 60 -48 5 -9
12 -164 15 -344 l5 -328 -795 -2 -795 -3 47 -70 c26 -38 58 -80 72 -92 l24
-23 1538 0 1537 0 35 48 c49 65 89 125 89 134 0 5 -358 8 -795 8 l-795 0 0
313 c0 358 1 360 82 411 43 26 51 27 77 16 42 -17 93 -57 108 -83 8 -15 12
-79 13 -204 0 -100 3 -184 8 -186 25 -15 135 82 166 147 26 54 40 171 28 234
l-9 52 108 0 107 0 4 173 c4 199 5 202 95 262 l57 38 33 -18 c43 -24 96 -78
105 -107 3 -13 6 -94 7 -180 1 -119 4 -158 14 -158 6 -1 66 -2 132 -3 l120 -2
5 181 c6 204 3 197 87 251 l53 33 38 -19 c45 -23 91 -67 103 -99 5 -13 9 -97
9 -187 l0 -164 295 2 294 2 8 55 c19 143 1 482 -35 650 l-8 35 -432 3 c-424 2
-432 3 -432 22 0 20 7 20 420 20 357 0 420 2 420 14 0 35 -97 292 -155 411
-93 191 -203 352 -329 483 l-61 63 -776 -3 c-596 -2 -775 0 -772 9 3 6 -14 23
-36 37 -23 15 -41 30 -41 34 0 4 345 6 767 4 l766 -2 -19 21 c-33 37 -192 157
-286 215 -96 59 -151 87 -518 268 -330 161 -466 255 -571 394 -75 99 -79 122
-80 436 0 149 -4 291 -8 316 l-8 45 -2 -40z m1019 -2704 c0 -5 3 -16 6 -25 5
-14 -10 -16 -135 -16 -133 0 -141 1 -141 20 0 18 8 20 103 23 56 1 117 4 135
5 17 1 32 -2 32 -7z m-1750 -21 c0 -19 -7 -20 -140 -20 -133 0 -140 1 -140 20
0 19 7 20 140 20 133 0 140 -1 140 -20z"/>
<path d="M4690 8911 c-462 -151 -884 -407 -1219 -739 -278 -276 -511 -612
-661 -956 -201 -458 -293 -950 -261 -1405 7 -97 18 -212 24 -256 l12 -80 110
0 c104 0 110 1 108 20 -1 11 -9 76 -17 145 -29 227 -17 607 24 835 124 678
520 1337 1045 1740 287 220 642 410 918 489 l57 17 0 114 c0 86 -3 115 -12
114 -7 0 -65 -17 -128 -38z"/>
<path d="M6402 8839 l3 -111 95 -33 c234 -80 471 -200 695 -353 431 -294 775
-710 980 -1185 172 -396 238 -728 238 -1182 0 -214 -10 -330 -39 -473 l-7 -33
114 3 114 3 12 60 c60 296 51 717 -23 1065 -115 537 -346 1010 -687 1405 -356
413 -815 721 -1357 909 -150 53 -141 57 -138 -75z"/>
<path d="M7524 5066 c-3 -8 -4 -29 -2 -48 l3 -33 118 0 c64 0 333 1 597 3
l480 2 0 45 0 45 -595 0 c-502 0 -596 -2 -601 -14z"/>
<path d="M4197 5038 c-23 -14 203 -207 325 -276 84 -48 240 -111 346 -140 l97
-26 665 -1 665 0 90 34 c218 81 446 222 575 355 l54 56 -914 0 c-503 1 -1135
2 -1403 3 -269 1 -494 -1 -500 -5z"/>
<path d="M2410 4865 l0 -45 605 0 605 0 0 45 0 45 -605 0 -605 0 0 -45z"/>
<path d="M8508 4883 c12 -2 30 -2 40 0 9 3 -1 5 -23 4 -22 0 -30 -2 -17 -4z"/>
<path d="M8688 4883 c6 -2 18 -2 25 0 6 3 1 5 -13 5 -14 0 -19 -2 -12 -5z"/>
<path d="M8712 4830 c0 -14 2 -19 5 -12 2 6 2 18 0 25 -3 6 -5 1 -5 -13z"/>
<path d="M7558 4813 c23 -2 61 -2 85 0 23 2 4 4 -43 4 -47 0 -66 -2 -42 -4z"/>
<path d="M7778 4813 c12 -2 30 -2 40 0 9 3 -1 5 -23 4 -22 0 -30 -2 -17 -4z"/>
<path d="M7878 4813 c23 -2 61 -2 85 0 23 2 4 4 -43 4 -47 0 -66 -2 -42 -4z"/>
<path d="M2412 4688 l3 -53 540 -3 c297 -2 568 0 603 3 l62 7 0 49 0 49 -606
0 -605 0 3 -52z"/>
<path d="M7520 4680 l0 -50 600 0 600 0 0 50 0 50 -600 0 -600 0 0 -50z"/>
<path d="M2393 4153 l-93 -4 0 -455 0 -455 213 3 c241 3 257 8 333 90 88 96
81 275 -15 362 l-21 19 24 26 c79 82 73 239 -11 327 -76 77 -176 98 -430 87z
m247 -194 c36 -13 60 -56 52 -94 -8 -45 -43 -65 -121 -72 l-71 -6 0 92 0 91
54 0 c29 0 68 -5 86 -11z m42 -379 c28 -34 24 -101 -8 -131 -21 -20 -38 -24
-100 -27 l-74 -4 0 95 0 96 33 3 c64 6 129 -8 149 -32z"/>
<path d="M3797 4153 c-4 -3 -7 -210 -7 -458 l0 -453 93 -4 c50 -3 95 -3 100
-1 4 2 7 211 7 464 l0 459 -93 0 c-52 0 -97 -3 -100 -7z"/>
<path d="M4130 4070 l0 -90 100 0 100 0 0 -369 c0 -286 3 -370 13 -373 15 -5
177 -2 182 4 3 2 5 160 5 349 1 190 4 355 7 367 5 21 11 22 104 22 l99 0 0 90
0 90 -305 0 -305 0 0 -90z"/>
<path d="M4860 3817 c0 -396 3 -415 75 -495 63 -70 126 -96 235 -96 106 0 170
25 233 93 80 85 82 97 82 491 l0 345 -97 3 -98 3 0 -326 c0 -350 -4 -380 -51
-406 -30 -16 -94 -15 -125 2 -52 27 -54 42 -54 399 l0 330 -100 0 -100 0 0
-343z"/>
<path d="M5650 3700 l0 -460 275 0 276 0 -3 91 -3 92 -172 -1 -173 -2 0 348
c0 191 -3 357 -6 370 -6 21 -11 22 -100 22 l-94 0 0 -460z"/>
<path d="M6620 3700 l0 -460 95 0 95 0 0 208 c1 235 -2 233 71 55 l41 -103 73
0 73 0 47 120 c25 66 51 122 56 125 5 4 9 -75 9 -199 l0 -206 100 0 100 0 0
459 0 458 -90 2 -90 2 -53 -113 c-29 -62 -73 -159 -97 -215 -25 -57 -48 -103
-51 -103 -3 0 -45 91 -94 203 -48 111 -93 208 -98 215 -6 8 -39 12 -98 12
l-89 0 0 -460z"/>
<path d="M7772 4151 c-7 -4 -31 -58 -53 -120 -54 -155 -249 -769 -249 -786 0
-3 47 -5 103 -5 l104 0 22 75 22 75 122 0 123 0 24 -75 24 -75 109 0 c83 0
108 3 105 13 -3 6 -71 211 -153 455 l-147 442 -58 0 c-32 0 -64 2 -72 5 -7 3
-19 1 -26 -4z m138 -578 c0 -9 -20 -13 -65 -13 -70 0 -73 3 -56 56 6 16 20 63
32 104 l22 75 34 -105 c18 -58 33 -111 33 -117z"/>
<path d="M3218 4043 c-20 -60 -83 -245 -140 -413 -58 -168 -109 -324 -115
-348 l-11 -43 106 3 106 3 24 73 25 72 122 0 121 0 26 -72 25 -73 102 -3 c95
-2 102 -1 97 15 -43 144 -113 363 -191 601 l-96 292 -82 0 -83 0 -36 -107z
m152 -358 c43 -126 43 -125 -35 -125 -69 0 -70 1 -56 46 6 16 19 62 31 102 12
41 23 72 26 70 2 -3 18 -45 34 -93z"/>
<path d="M8300 4027 c0 -68 3 -273 7 -455 l6 -332 289 0 289 0 -3 93 -3 92
-190 0 -190 0 -3 363 -2 362 -100 0 -100 0 0 -123z"/>
<path d="M2473 3030 c-23 -5 -55 -16 -71 -24 -42 -22 -97 -88 -110 -135 -15
-47 -16 -381 -2 -432 15 -53 72 -113 132 -139 64 -27 151 -24 214 8 47 24 100
81 120 128 26 61 23 64 -69 64 -81 0 -82 0 -95 -29 -18 -40 -62 -58 -103 -41
-17 7 -35 24 -40 37 -5 13 -9 103 -9 199 0 172 0 175 25 199 16 17 35 25 60
25 41 0 85 -36 85 -69 0 -29 8 -31 89 -24 l73 6 -5 40 c-17 125 -159 215 -294
187z"/>
<path d="M2867 3023 c-4 -3 -7 -170 -7 -370 l0 -364 78 3 77 3 3 368 2 367
-73 0 c-41 0 -77 -3 -80 -7z"/>
<path d="M3270 3014 c-46 -20 -77 -50 -103 -99 -21 -37 -22 -54 -22 -260 0
-248 2 -255 77 -319 122 -105 324 -56 390 93 27 64 21 71 -65 71 -73 0 -75 -1
-87 -29 -24 -59 -102 -65 -142 -10 -18 23 -19 43 -19 200 1 207 7 222 84 227
43 3 48 1 67 -30 11 -18 20 -41 20 -50 0 -20 20 -22 108 -12 46 6 52 10 52 30
0 34 -34 106 -66 138 -47 47 -99 66 -184 65 -45 0 -89 -6 -110 -15z"/>
<path d="M3734 3016 c-3 -9 -4 -136 -2 -283 3 -245 5 -272 24 -313 43 -95 139
-147 250 -137 127 12 198 80 215 204 9 73 11 469 2 516 -5 28 -6 28 -77 25
l-71 -3 -5 -270 c-3 -148 -9 -278 -14 -288 -23 -48 -105 -57 -142 -15 -17 18
-19 46 -24 297 l-5 276 -73 3 c-57 2 -73 0 -78 -12z"/>
<path d="M4370 2660 l0 -370 80 0 80 0 0 140 c0 132 1 140 19 140 25 0 46 -31
115 -167 l56 -113 80 0 c44 0 80 4 80 9 0 5 -31 75 -69 156 l-70 146 34 22
c106 69 115 266 16 350 -52 44 -117 57 -278 57 l-143 0 0 -370z m290 221 c15
-4 32 -21 43 -43 16 -33 17 -40 3 -71 -19 -46 -41 -57 -115 -57 l-61 0 0 83
c0 46 3 87 7 90 8 9 90 7 123 -2z"/>
<path d="M4980 2757 c0 -310 5 -339 70 -406 91 -93 262 -90 351 6 63 68 64 71
64 383 l0 285 -75 0 -75 0 -5 -275 c-3 -151 -9 -282 -13 -291 -9 -19 -49 -39
-77 -39 -11 0 -34 13 -52 29 l-33 29 -3 276 -3 276 -75 0 -74 0 0 -273z"/>
<path d="M5732 3019 c-50 -15 -118 -86 -132 -138 -8 -30 -11 -109 -8 -235 3
-173 5 -195 25 -232 43 -80 120 -125 218 -126 71 -1 126 20 174 65 58 55 71
96 71 230 l0 117 -125 0 -125 0 0 -59 c0 -65 6 -71 66 -71 31 0 34 -3 34 -29
0 -41 -19 -90 -40 -101 -25 -13 -76 -13 -102 1 -37 20 -48 69 -48 222 0 79 5
158 10 174 12 32 45 53 84 53 28 0 72 -33 81 -60 6 -18 15 -20 85 -20 l80 0
-7 33 c-22 116 -115 187 -243 186 -36 0 -80 -5 -98 -10z"/>
<path d="M6500 2660 l0 -370 158 0 c144 0 161 2 207 24 58 27 78 47 100 99 30
73 12 177 -42 239 -14 15 -13 20 6 46 59 84 46 211 -30 275 -54 47 -102 57
-263 57 l-136 0 0 -370z m296 205 c8 -10 14 -36 14 -56 0 -53 -35 -79 -106
-79 l-54 0 0 73 c0 41 3 77 8 81 4 4 33 6 66 4 42 -3 62 -10 72 -23z m-11
-281 c19 -8 45 -55 45 -84 0 -11 -11 -32 -25 -45 -20 -21 -34 -25 -85 -25
l-60 0 0 80 0 80 54 0 c30 0 62 -3 71 -6z"/>
<path d="M7291 3013 c-14 -28 -221 -688 -221 -706 0 -15 12 -17 80 -17 60 0
80 3 80 13 0 7 7 37 15 65 l16 52 88 0 c59 0 92 -4 98 -12 6 -7 18 -37 27 -65
l18 -53 83 0 83 0 -20 63 c-11 34 -41 127 -65 207 -25 80 -70 218 -100 308
l-56 162 -58 0 c-45 0 -60 -4 -68 -17z m93 -367 c14 -46 26 -87 26 -90 0 -9
-100 -7 -100 2 0 11 43 172 46 172 1 0 14 -38 28 -84z"/>
<path d="M7670 2955 l0 -75 80 0 80 0 0 -295 0 -295 78 0 77 0 0 297 0 298 88
-1 87 -1 0 74 0 73 -245 0 -245 0 0 -75z"/>
<path d="M8365 2913 c-20 -65 -54 -172 -75 -238 -49 -149 -110 -355 -110 -372
0 -9 22 -13 78 -13 l78 0 20 63 20 62 91 3 c102 3 102 3 127 -75 l18 -53 84 0
c60 0 84 3 84 12 0 7 -20 69 -45 138 -25 69 -80 229 -123 355 l-77 230 -67 3
-67 3 -36 -118z m129 -257 c14 -46 26 -89 26 -95 0 -12 -100 -16 -100 -3 -1 9
44 182 47 182 1 0 13 -38 27 -84z"/>
</g>
</svg>
